<svg xmlns="http://www.w3.org/2000/svg" width="700" height="700"><path d="M0 0h700v700H0z"/><path fill="#fff" d="M80 256v54h60v-54h-24v36h-12v-36zm66 0v54h12v-30h6v12h6v6h6v12h30v-54h-24v24h-6v-12h-6v-12zm66 0v54h48v-6h6v-42h-6v-6zm60 0h48v18h-24v6h24v6h-24v6h24v18h-48zm54 0v54h18v-6h18v6h24v-12h-18v-6h18v-36zm66 0v24h18v30h24v-30h18v-24zm66 0v54h18v-18h18v18h18v-54zm60 0v54h48v-18h-24v-36zm54 0h48v18h-24v6h24v6h-24v6h24v18h-48zM204 420v8h4v4h16v-4h4v-12h-4v-4h-12v-12h8v8h8v-8h-4v-4h-16v4h-4v12h4v4h12v12h-8v-8zm28-20v28h4v4h16v-4h4v-28h-4v-4h-16v4zm28-4v32h4v4h16v-4h4v-32h-8v32h-8v-32zm28 0v36h8v-20h4v-8h-4v-8zm12 16v8h4v12h8v-36h-8v16zm16-16v36h20v-4h4v-28h-4v-4zm28 0v4h8v32h8v-32h8v-4zm28 0v36h8v-16h8v16h8v-16h-4v-4h4v-12h-4v-4zm28 4v32h8v-12h8v12h8v-32h-4v-4h-16v4zm28 0v28h4v4h16v-4h4v-8h-8v8h-8v-28h8v8h8v-8h-4v-4h-16v4zm28-4v36h8v-16h4v8h4v8h8v-8h-4v-8h-4v-4h4v-8h4v-8h-8v8h-4v8h-4v-16z"/><path d="M240 400v28h8v-28zm84 0h8v28h-8zm56 0h8v12h-8zm28 0h8v16h-8zm68-120v6h18v-6zm-246-6h12v12h-6v12h-6z"/><path fill="#848484" d="M80 256h6v6h-6zm30 30h6v6h-6zm48-6h6v6h-6zm12-18h6v6h-6zm6 42h6v6h-6zm36-48h6v6h-6zm18 12h6v6h-6zm6 18h6v6h-6zm36-30h6v6h-6zm42 24h6v6h-6zm30 18h6v6h-6zm24-6h6v6h-6zm12-36h6v6h-6zm12 0h6v6h-6zm66 0h6v6h-6zm18 24h6v6h-6zm12 12h6v6h-6zm30-36h6v6h-6zm54 0h6v6h-6zm42 24h6v6h-6z"/><path fill="#ed1c24" d="M350 268v12h6v6h6v-6h6v-12h-6v6h-6v-6z"/></svg>